<svg xmlns="http://www.w3.org/2000/svg" width="39" height="21" viewBox="0 0 39 21">
  <path id="Icon" d="M26.813,17.5V11.667H12.188V17.5a3.4,3.4,0,0,1-.986,2.381,3.778,3.778,0,0,1-2.443,1.111L8.532,21a3.584,3.584,0,0,1-3.656-3.5v-.209a3.919,3.919,0,0,1-.993.2l-.226.008A3.585,3.585,0,0,1,0,14V7A3.391,3.391,0,0,1,.986,4.618,3.783,3.783,0,0,1,3.43,3.508L3.656,3.5a3.786,3.786,0,0,1,1.219.2V3.5a3.389,3.389,0,0,1,.986-2.381A3.775,3.775,0,0,1,8.305.008L8.532,0a3.585,3.585,0,0,1,3.656,3.5V9.333H26.813V3.5A3.389,3.389,0,0,1,27.8,1.118,3.775,3.775,0,0,1,30.243.008L30.469,0a3.585,3.585,0,0,1,3.656,3.5v.208a3.923,3.923,0,0,1,.992-.2l.226-.008A3.584,3.584,0,0,1,39,7v7a3.387,3.387,0,0,1-.986,2.381,3.782,3.782,0,0,1-2.443,1.112l-.226.008a3.785,3.785,0,0,1-1.218-.2v.2a3.4,3.4,0,0,1-.986,2.381A3.778,3.778,0,0,1,30.7,20.992L30.469,21A3.584,3.584,0,0,1,26.813,17.5ZM30.379,2.337A1.192,1.192,0,0,0,29.251,3.5v14a1.187,1.187,0,0,0,1.173,1.167l.136,0A1.193,1.193,0,0,0,31.689,17.5V14.086q0-.043,0-.087V7q0-.043,0-.087V3.5a1.2,1.2,0,0,0-1.219-1.166Zm-21.938,0A1.192,1.192,0,0,0,7.313,3.5v14a1.187,1.187,0,0,0,1.173,1.167l.136,0A1.193,1.193,0,0,0,9.751,17.5V10.548c0-.016,0-.032,0-.049s0-.033,0-.049V3.5A1.2,1.2,0,0,0,8.532,2.334Zm26.812,3.5A1.193,1.193,0,0,0,34.125,7v7A1.188,1.188,0,0,0,35.3,15.168l.136,0A1.194,1.194,0,0,0,36.563,14V7a1.2,1.2,0,0,0-1.219-1.166Zm-31.687,0A1.193,1.193,0,0,0,2.438,7v7a1.187,1.187,0,0,0,1.173,1.168l.136,0A1.194,1.194,0,0,0,4.876,14V7A1.2,1.2,0,0,0,3.656,5.833Z" fill="#fff"/>
</svg>
