<svg xmlns="http://www.w3.org/2000/svg" width="22.416" height="21.132" viewBox="0 0 22.416 21.132"><g transform="translate(0)"><path d="M16.139,21.132H6.233a.7.7,0,0,1,0-1.409h9.905a.7.7,0,0,1,0,1.409ZM14.026,19H8.346a.669.669,0,0,1-.506-.209.718.718,0,0,1,0-.99.67.67,0,0,1,.506-.209h2.091V12.679A6.558,6.558,0,0,1,8.5,12.161a7.018,7.018,0,0,1-1.695-1.056A7.52,7.52,0,0,1,4.539,7.748,6.045,6.045,0,0,1,2.447,7.33a3.605,3.605,0,0,1-1.475-1.1A3.976,3.976,0,0,1,0,3.5c.045-.978.073-1.475.088-1.519a.645.645,0,0,1,.242-.418.7.7,0,0,1,.44-.154H4.12V.7a.679.679,0,0,1,.209-.5A.679.679,0,0,1,4.825,0H17.481a.67.67,0,0,1,.507.209.7.7,0,0,1,.2.5v.7h3.456a.7.7,0,0,1,.44.154.644.644,0,0,1,.242.418c.015.044.044.555.088,1.519a3.975,3.975,0,0,1-.968,2.73,3.843,3.843,0,0,1-1.519,1.112,5.877,5.877,0,0,1-2.157.407A7.513,7.513,0,0,1,16.854,9.6,7.436,7.436,0,0,1,15.5,11.105a7,7,0,0,1-1.695,1.056,6.574,6.574,0,0,1-1.959.517v4.909h2.179a.7.7,0,0,1,0,1.409ZM5.529,1.409V5.195a6.46,6.46,0,0,0,.44,2.388A6.129,6.129,0,0,0,7.18,9.52a5.886,5.886,0,0,0,1.794,1.31,5.2,5.2,0,0,0,4.38,0,5.753,5.753,0,0,0,1.783-1.31,6.225,6.225,0,0,0,1.2-1.937,6.453,6.453,0,0,0,.44-2.388V1.409ZM18.186,2.817V5.195c0,.191-.007.384-.022.572s-.036.374-.066.55a3.77,3.77,0,0,0,1.332-.3,2.766,2.766,0,0,0,.936-.672,2.6,2.6,0,0,0,.561-1.31A7.114,7.114,0,0,0,21,2.817Zm-16.773,0A7.114,7.114,0,0,0,1.49,4.039a2.6,2.6,0,0,0,.561,1.31,2.479,2.479,0,0,0,.892.661,3.98,3.98,0,0,0,1.266.308c-.029-.187-.051-.376-.066-.561s-.022-.37-.022-.561V2.817Z" transform="translate(0 0)" fill="#fff"/></g></svg>