<svg xmlns="http://www.w3.org/2000/svg" width="21.996" height="20" viewBox="0 0 21.996 20"><path d="M11,20a.942.942,0,0,1-.68-.289L1.829,10.972a6.57,6.57,0,0,1,0-9.089,6.12,6.12,0,0,1,8.832,0L11,2.231l.338-.348A6.147,6.147,0,0,1,15.479.006L15.755,0A6.113,6.113,0,0,1,20.17,1.883,6.477,6.477,0,0,1,22,6.427a6.481,6.481,0,0,1-1.829,4.545l-8.492,8.739A.942.942,0,0,1,11,20ZM6.245,1.978a4.235,4.235,0,0,0-3.057,1.3,4.547,4.547,0,0,0,0,6.293L11,17.613l7.812-8.04a4.5,4.5,0,0,0,1.261-2.911l.006-.236A4.486,4.486,0,0,0,18.812,3.28a4.238,4.238,0,0,0-6.115,0L11.679,4.329a.942.942,0,0,1-1.359,0L9.3,3.28A4.235,4.235,0,0,0,6.245,1.978Z" transform="translate(-0.003)" fill="#fff"/></svg>