<svg id="Icon" xmlns="http://www.w3.org/2000/svg" width="32" height="46" viewBox="0 0 32 46">
  <path id="Shape" d="M7.111,46a3.8,3.8,0,0,1-3.555-3.755L0,3.849A3.818,3.818,0,0,1,3.556,0H28.444A3.8,3.8,0,0,1,32,3.755L28.444,42.339A3.776,3.776,0,0,1,24.889,46Z" transform="translate(0 0)" fill="#ff5100"/>
  <path id="Shape-2" data-name="Shape" d="M20.462,31.918h-16c-.622,0-1.6-.188-1.778-1.784L.018,1.971A2.027,2.027,0,0,1,.373.563,1.731,1.731,0,0,1,1.8,0H23.129a1.874,1.874,0,0,1,1.422.563,1.882,1.882,0,0,1,.356,1.408L22.24,30.135C22.062,31.731,21.084,31.918,20.462,31.918Z" transform="translate(3.538 11.265)" fill="#ff5100"/>
  <path id="Shape-3" data-name="Shape" d="M0,2.816A2.7,2.7,0,0,1,2.667,0,2.7,2.7,0,0,1,5.333,2.816,2.7,2.7,0,0,1,2.667,5.633,2.7,2.7,0,0,1,0,2.816Z" transform="translate(15.111 32.857)" fill="#fff"/>
  <path id="Shape-4" data-name="Shape" d="M1.778,3.755A1.835,1.835,0,0,1,0,1.878,1.835,1.835,0,0,1,1.778,0,1.835,1.835,0,0,1,3.556,1.878,1.835,1.835,0,0,1,1.778,3.755Z" transform="translate(9.778 27.224)" fill="#fff"/>
  <path id="Shape-5" data-name="Shape" d="M1.778,3.755A1.835,1.835,0,0,1,0,1.878,1.835,1.835,0,0,1,1.778,0,1.835,1.835,0,0,1,3.556,1.878,1.835,1.835,0,0,1,1.778,3.755Z" transform="translate(16 21.592)" fill="#fff"/>
</svg>
